<?xml version="1.0" encoding="UTF-8"?>
<svg width="141.22" height="69.896" version="1.1" viewBox="0 0 65.902 149.78" xmlns="http://www.w3.org/2000/svg" xmlns:cc="http://creativecommons.org/ns#" xmlns:dc="http://purl.org/dc/elements/1.1/" xmlns:rdf="http://www.w3.org/1999/02/22-rdf-syntax-ns#">
<metadata>
<rdf:RDF>
<cc:Work rdf:about="">
<dc:format>image/svg+xml</dc:format>
<dc:type rdf:resource="http://purl.org/dc/dcmitype/StillImage"/>
<dc:title/>
</cc:Work>
</rdf:RDF>
</metadata>
<g transform="matrix(2.3973 0 0 2.5367 -164.4 -118.54)">
<rect transform="scale(1,-1)" x="19.207" y="-81.885" width="23.697" height="24.277" ry="2.7712" fill="#69a74d"/>
<rect transform="scale(1,-1)" x="44.746" y="-71.131" width="23.697" height="24.277" ry="2.7712" fill="#3878d8"/>
<rect transform="scale(1,-1)" x="44.746" y="-97.408" width="23.697" height="24.277" ry="2.7712" fill="#ca383b"/>
<rect transform="scale(1,-1)" x="70.446" y="-79.497" width="23.697" height="24.277" ry="2.7712" fill="#db9847"/>
<rect transform="scale(1,-1)" x="96.169" y="-97.284" width="23.697" height="24.277" ry="2.7712" fill="#9a06fb"/>
<rect transform="scale(1,-1)" x="121.74" y="-82.139" width="23.697" height="24.277" ry="2.7712" fill="#c30b84"/>
<rect transform="scale(1,-1)" x="70.446" y="-105.77" width="23.697" height="24.277" ry="2.7712" fill="#3878d8"/>
<rect transform="scale(1,-1)" x="96.169" y="-71.007" width="23.697" height="24.277" ry="2.7712" fill="#3878d8"/>
</g>
</svg>
